<svg width="48" height="48" viewBox="0 0 48 48" fill="none" xmlns="http://www.w3.org/2000/svg">
<g id="Behance/white">
<g id="Behance">
<path id="Combined-Shape" fill-rule="evenodd" clip-rule="evenodd" d="M24 0C10.7452 0 0 10.7452 0 24C0 37.2548 10.7452 48 24 48C37.2548 48 48 37.2548 48 24C48 10.7452 37.2548 0 24 0ZM34.3374 18.6699H27.5581V16.7276H34.3374V18.6699ZM33.7402 20.3003C32.9244 19.9395 32.0077 19.7583 30.9887 19.7583C29.2743 19.7583 27.8821 20.2944 26.8059 21.3591C25.7327 22.4267 25.1953 23.9606 25.1953 25.9608C25.1953 28.0932 25.7884 29.6345 26.982 30.5804C28.1695 31.5278 29.5438 32 31.1016 32C32.9876 32 34.4552 31.4387 35.5028 30.3176C36.1741 29.6108 36.5534 28.9143 36.6362 28.2313H33.5129C33.3323 28.5698 33.1216 28.8341 32.8823 29.0257C32.4473 29.3776 31.8798 29.5543 31.1859 29.5543C30.5267 29.5543 29.9652 29.4088 29.4986 29.1192C28.728 28.6545 28.3246 27.8422 28.2734 26.6855H36.7972C36.8108 25.6891 36.7777 24.9229 36.6949 24.3942C36.5534 23.4899 36.2433 22.694 35.7602 22.008C35.2303 21.2299 34.5575 20.6597 33.7402 20.3003ZM18.8446 16C20.7743 16.0282 22.1395 16.5821 22.9447 17.6631C23.4279 18.3269 23.6702 19.1198 23.6702 20.0449C23.6702 20.9967 23.4279 21.7644 22.9387 22.3436C22.6648 22.6673 22.2629 22.9643 21.7316 23.2315C22.5383 23.5226 23.1464 23.9814 23.5604 24.6095C23.9698 25.2362 24.176 25.9994 24.176 26.8963C24.176 27.8214 23.9412 28.6515 23.47 29.385C23.172 29.8706 22.7987 30.2804 22.3502 30.6131C21.846 30.9947 21.2514 31.2546 20.5635 31.3971C19.8757 31.5382 19.1321 31.6065 18.3284 31.6065H11.1998V16H18.8446Z" fill="url(#paint0_linear_674_356)"/>
<path id="Combined-Shape_2" fill-rule="evenodd" clip-rule="evenodd" d="M14.3533 18.71H17.7971C18.5542 18.71 19.1774 18.7917 19.6681 18.9535C20.234 19.1881 20.517 19.6678 20.517 20.3969C20.517 21.0502 20.3017 21.5076 19.8743 21.766C19.4438 22.0243 18.8854 22.1535 18.2005 22.1535H14.3533V18.71ZM29.1642 22.9079C29.5962 22.4683 30.2073 22.2486 30.99 22.2486C31.7125 22.2486 32.316 22.455 32.8067 22.8692C33.2914 23.2865 33.5653 23.8924 33.621 24.6942H28.3484C28.4598 23.9428 28.7322 23.3474 29.1642 22.9079ZM18.2487 24.7358H14.3533V28.898H18.1945C18.8808 28.898 19.4167 28.806 19.7975 28.6233C20.4914 28.2818 20.8376 27.6344 20.8376 26.6751C20.8376 25.8614 20.5034 25.3045 19.8306 25.0001C19.4543 24.8308 18.926 24.7417 18.2487 24.7358Z" fill="url(#paint1_linear_674_356)"/>
</g>
</g>
<defs>
<linearGradient id="paint0_linear_674_356" x1="7.75155" y1="-9.42523e-08" x2="43.1032" y2="50.6137" gradientUnits="userSpaceOnUse">
<stop stop-color="white" stop-opacity="0.2"/>
<stop offset="0.646388" stop-color="white" stop-opacity="0.75"/>
<stop offset="0.918446" stop-color="white" stop-opacity="0.55"/>
</linearGradient>
<linearGradient id="paint1_linear_674_356" x1="17.4648" y1="18.71" x2="22.6593" y2="32.7752" gradientUnits="userSpaceOnUse">
<stop stop-color="white" stop-opacity="0.2"/>
<stop offset="0.646388" stop-color="white" stop-opacity="0.75"/>
<stop offset="0.918446" stop-color="white" stop-opacity="0.55"/>
</linearGradient>
</defs>
</svg>
