<svg width="34" height="34" viewBox="0 0 34 34" fill="none" xmlns="http://www.w3.org/2000/svg">
<g id="tool_12971344 1">
<path id="Vector" d="M26.5625 10.0938C25.5751 10.0938 24.7505 10.7736 24.513 11.6875H19.125V10.625C19.125 10.3316 18.8874 10.0938 18.5938 10.0938H15.4062C15.1126 10.0938 14.875 10.3316 14.875 10.625V11.6875H9.48705C9.2495 10.7736 8.42494 10.0938 7.4375 10.0938C6.26553 10.0938 5.3125 11.047 5.3125 12.2188C5.3125 13.3905 6.26553 14.3438 7.4375 14.3438C8.42494 14.3438 9.2495 13.6639 9.48705 12.75H12.2755C10.4511 13.9041 9.20641 15.8871 9.05369 18.1309C8.12805 18.3604 7.4375 19.1918 7.4375 20.1875C7.4375 21.3595 8.39053 22.3125 9.5625 22.3125C10.7345 22.3125 11.6875 21.3595 11.6875 20.1875C11.6875 19.208 11.0183 18.3898 10.1155 18.1447C10.3205 15.5184 12.2977 13.3253 14.875 12.8478V13.8125C14.875 14.1059 15.1126 14.3438 15.4062 14.3438H18.5938C18.8874 14.3438 19.125 14.1059 19.125 13.8125V12.848C21.7375 13.3224 23.6857 15.4876 23.8852 18.1445C22.9821 18.3893 22.3125 19.2078 22.3125 20.1875C22.3125 21.3595 23.2655 22.3125 24.4375 22.3125C25.6095 22.3125 26.5625 21.3595 26.5625 20.1875C26.5625 19.1921 25.8723 18.361 24.9471 18.1312C24.7991 15.8674 23.5812 13.8969 21.7611 12.75H24.513C24.7505 13.6639 25.5751 14.3438 26.5625 14.3438C27.7345 14.3438 28.6875 13.3905 28.6875 12.2188C28.6875 11.047 27.7345 10.0938 26.5625 10.0938ZM10.625 20.1875C10.625 20.7732 10.1482 21.25 9.5625 21.25C8.97678 21.25 8.5 20.7732 8.5 20.1875C8.5 19.6018 8.97678 19.125 9.5625 19.125C10.1482 19.125 10.625 19.6018 10.625 20.1875ZM25.5 20.1875C25.5 20.7732 25.0232 21.25 24.4375 21.25C23.8518 21.25 23.375 20.7732 23.375 20.1875C23.375 19.6018 23.8518 19.125 24.4375 19.125C25.0232 19.125 25.5 19.6018 25.5 20.1875ZM7.4375 13.2812C6.85178 13.2812 6.375 12.8047 6.375 12.2188C6.375 11.6328 6.85178 11.1562 7.4375 11.1562C8.02322 11.1562 8.5 11.6328 8.5 12.2188C8.5 12.8047 8.02322 13.2812 7.4375 13.2812ZM18.0625 13.2812H15.9375V11.1562H18.0625V13.2812ZM26.5625 13.2812C25.9768 13.2812 25.5 12.8047 25.5 12.2188C25.5 11.6328 25.9768 11.1562 26.5625 11.1562C27.1482 11.1562 27.625 11.6328 27.625 12.2188C27.625 12.8047 27.1482 13.2812 26.5625 13.2812ZM30.2812 3.71875H3.71875C2.25418 3.71875 1.0625 4.91043 1.0625 6.375V23.375C1.0625 24.8396 2.25418 26.0312 3.71875 26.0312H13.134L13.559 27.0938H13.2812C12.4024 27.0938 11.6875 27.8087 11.6875 28.6875V29.2188C11.6875 30.0976 12.4024 30.8125 13.2812 30.8125H20.7188C21.5976 30.8125 22.3125 30.0976 22.3125 29.2188V28.6875C22.3125 27.8087 21.5976 27.0938 20.7188 27.0938H20.441L20.866 26.0312H30.2812C31.7458 26.0312 32.9375 24.8396 32.9375 23.375V6.375C32.9375 4.91043 31.7458 3.71875 30.2812 3.71875ZM3.71875 4.78125H30.2812C31.1601 4.78125 31.875 5.49615 31.875 6.375V7.96875H2.125V6.375C2.125 5.49615 2.8399 4.78125 3.71875 4.78125ZM21.25 28.6875V29.2188C21.25 29.5119 21.0119 29.75 20.7188 29.75H13.2812C12.9881 29.75 12.75 29.5119 12.75 29.2188V28.6875C12.75 28.3944 12.9881 28.1562 13.2812 28.1562H14.3338H14.3354H20.7188C21.0119 28.1562 21.25 28.3944 21.25 28.6875ZM14.7035 27.0938L12.8226 22.3924L16.4688 17.5311V20.8498C15.8517 21.0698 15.4062 21.654 15.4062 22.3457C15.4062 23.2245 16.1212 23.9395 17 23.9395C17.8788 23.9395 18.5938 23.2245 18.5938 22.3457C18.5938 21.654 18.1483 21.0698 17.5312 20.8498V17.5311L21.1774 22.3924L19.2965 27.0938H14.7035ZM17 21.8145C17.2931 21.8145 17.5312 22.0526 17.5312 22.3457C17.5312 22.6388 17.2931 22.877 17 22.877C16.7069 22.877 16.4688 22.6388 16.4688 22.3457C16.4688 22.0526 16.7069 21.8145 17 21.8145ZM30.2812 24.9688H21.291L22.2746 22.5096C22.3431 22.3374 22.3177 22.1418 22.2061 21.994L17.4249 15.6187C17.2246 15.351 16.7754 15.351 16.5751 15.6187L11.7939 21.994C11.6823 22.1418 11.6569 22.3374 11.7254 22.5096L12.709 24.9688H3.71875C2.8399 24.9688 2.125 24.2538 2.125 23.375V9.03125H31.875V23.375C31.875 24.2538 31.1601 24.9688 30.2812 24.9688ZM3.1875 6.375C3.1875 6.08162 3.42511 5.84375 3.71875 5.84375H6.90625C7.19989 5.84375 7.4375 6.08162 7.4375 6.375C7.4375 6.66838 7.19989 6.90625 6.90625 6.90625H3.71875C3.42511 6.90625 3.1875 6.66838 3.1875 6.375ZM8.5 6.375C8.5 6.08162 8.73761 5.84375 9.03125 5.84375H12.2188C12.5124 5.84375 12.75 6.08162 12.75 6.375C12.75 6.66838 12.5124 6.90625 12.2188 6.90625H9.03125C8.73761 6.90625 8.5 6.66838 8.5 6.375ZM23.375 6.375C23.375 6.08162 23.6126 5.84375 23.9062 5.84375H29.2188C29.5124 5.84375 29.75 6.08162 29.75 6.375C29.75 6.66838 29.5124 6.90625 29.2188 6.90625H23.9062C23.6126 6.90625 23.375 6.66838 23.375 6.375Z" fill="url(#paint0_linear_674_377)"/>
</g>
<defs>
<linearGradient id="paint0_linear_674_377" x1="6.21002" y1="3.71875" x2="24.8689" y2="35.1475" gradientUnits="userSpaceOnUse">
<stop stop-color="white" stop-opacity="0.2"/>
<stop offset="0.646388" stop-color="white" stop-opacity="0.75"/>
<stop offset="0.918446" stop-color="white" stop-opacity="0.55"/>
</linearGradient>
</defs>
</svg>
