<svg width="48" height="48" viewBox="0 0 48 48" fill="none" xmlns="http://www.w3.org/2000/svg">
<g id="Instagram">
<path id="Combined-Shape" fill-rule="evenodd" clip-rule="evenodd" d="M24 0C10.7452 0 0 10.7452 0 24C0 37.2548 10.7452 48 24 48C37.2548 48 48 37.2548 48 24C48 10.7452 37.2548 0 24 0ZM18.7231 11.2773C20.0885 11.2152 20.5247 11.2 24.001 11.2H23.997C27.4744 11.2 27.9091 11.2152 29.2744 11.2773C30.6371 11.3397 31.5678 11.5555 32.3838 11.872C33.2265 12.1987 33.9385 12.636 34.6505 13.348C35.3625 14.0595 35.7998 14.7736 36.1278 15.6155C36.4425 16.4294 36.6585 17.3595 36.7225 18.7222C36.7838 20.0876 36.7998 20.5238 36.7998 24.0001C36.7998 27.4764 36.7838 27.9117 36.7225 29.277C36.6585 30.6391 36.4425 31.5696 36.1278 32.3837C35.7998 33.2253 35.3625 33.9394 34.6505 34.6509C33.9393 35.3629 33.2262 35.8013 32.3846 36.1283C31.5702 36.4448 30.639 36.6605 29.2763 36.7229C27.9109 36.7851 27.476 36.8003 23.9994 36.8003C20.5234 36.8003 20.0874 36.7851 18.722 36.7229C17.3596 36.6605 16.4292 36.4448 15.6148 36.1283C14.7735 35.8013 14.0593 35.3629 13.3481 34.6509C12.6364 33.9394 12.199 33.2253 11.8718 32.3834C11.5556 31.5696 11.3398 30.6394 11.2772 29.2767C11.2153 27.9114 11.1998 27.4764 11.1998 24.0001C11.1998 20.5238 11.2158 20.0873 11.2769 18.722C11.3382 17.3598 11.5542 16.4294 11.8716 15.6153C12.1996 14.7736 12.6369 14.0595 13.3489 13.348C14.0604 12.6363 14.7745 12.199 15.6164 11.872C16.4303 11.5555 17.3604 11.3397 18.7231 11.2773Z" fill="url(#paint0_linear_674_379)"/>
<path id="Combined-Shape_2" fill-rule="evenodd" clip-rule="evenodd" d="M22.853 13.5067C23.0759 13.5063 23.3158 13.5064 23.5746 13.5066L24.0013 13.5067C27.4189 13.5067 27.824 13.5189 29.1736 13.5803C30.4216 13.6373 31.0989 13.8459 31.5501 14.0211C32.1475 14.2531 32.5733 14.5304 33.0211 14.9784C33.4691 15.4264 33.7464 15.8531 33.979 16.4504C34.1542 16.9011 34.363 17.5785 34.4198 18.8265C34.4811 20.1758 34.4944 20.5812 34.4944 23.9972C34.4944 27.4132 34.4811 27.8186 34.4198 29.1679C34.3627 30.4159 34.1542 31.0933 33.979 31.5439C33.747 32.1413 33.4691 32.5666 33.0211 33.0143C32.5731 33.4624 32.1477 33.7397 31.5501 33.9717C31.0995 34.1477 30.4216 34.3557 29.1736 34.4128C27.8242 34.4741 27.4189 34.4874 24.0013 34.4874C20.5834 34.4874 20.1783 34.4741 18.8289 34.4128C17.5809 34.3552 16.9036 34.1466 16.4521 33.9714C15.8548 33.7394 15.4281 33.4621 14.9801 33.0141C14.5321 32.5661 14.2548 32.1405 14.0222 31.5429C13.847 31.0922 13.6382 30.4149 13.5814 29.1668C13.5201 27.8175 13.5078 27.4122 13.5078 23.994C13.5078 20.5758 13.5201 20.1726 13.5814 18.8233C13.6385 17.5753 13.847 16.8979 14.0222 16.4467C14.2542 15.8494 14.5321 15.4227 14.9801 14.9747C15.4281 14.5267 15.8548 14.2494 16.4521 14.0168C16.9033 13.8408 17.5809 13.6328 18.8289 13.5755C20.0097 13.5221 20.4674 13.5061 22.853 13.5035V13.5067ZM30.8336 15.632C29.9856 15.632 29.2976 16.3192 29.2976 17.1675C29.2976 18.0155 29.9856 18.7035 30.8336 18.7035C31.6816 18.7035 32.3696 18.0155 32.3696 17.1675C32.3696 16.3195 31.6816 15.6315 30.8336 15.6315V15.632ZM17.4276 24.0001C17.4276 20.37 20.3707 17.4268 24.0007 17.4267C27.6309 17.4267 30.5733 20.3699 30.5733 24.0001C30.5733 27.6303 27.6312 30.5722 24.001 30.5722C20.3708 30.5722 17.4276 27.6303 17.4276 24.0001Z" fill="url(#paint1_linear_674_379)"/>
<path id="Shape" d="M24.0011 19.7334C26.3574 19.7334 28.2678 21.6436 28.2678 24.0001C28.2678 26.3564 26.3574 28.2668 24.0011 28.2668C21.6445 28.2668 19.7344 26.3564 19.7344 24.0001C19.7344 21.6436 21.6445 19.7334 24.0011 19.7334Z" fill="url(#paint2_linear_674_379)"/>
</g>
<defs>
<linearGradient id="paint0_linear_674_379" x1="7.75155" y1="-9.42523e-08" x2="43.1032" y2="50.6137" gradientUnits="userSpaceOnUse">
<stop stop-color="white" stop-opacity="0.2"/>
<stop offset="0.646388" stop-color="white" stop-opacity="0.75"/>
<stop offset="0.918446" stop-color="white" stop-opacity="0.55"/>
</linearGradient>
<linearGradient id="paint1_linear_674_379" x1="16.897" y1="13.5035" x2="32.3508" y2="35.6319" gradientUnits="userSpaceOnUse">
<stop stop-color="white" stop-opacity="0.2"/>
<stop offset="0.646388" stop-color="white" stop-opacity="0.75"/>
<stop offset="0.918446" stop-color="white" stop-opacity="0.55"/>
</linearGradient>
<linearGradient id="paint2_linear_674_379" x1="21.1124" y1="19.7334" x2="27.3972" y2="28.7315" gradientUnits="userSpaceOnUse">
<stop stop-color="white" stop-opacity="0.2"/>
<stop offset="0.646388" stop-color="white" stop-opacity="0.75"/>
<stop offset="0.918446" stop-color="white" stop-opacity="0.55"/>
</linearGradient>
</defs>
</svg>
